<svg width="359" height="318" viewBox="0 0 359 318" fill="none" xmlns="http://www.w3.org/2000/svg">
<path d="M358.5 307C185.3 289.4 46.6667 299.667 -1 307V0H358.5V307Z" fill="#F0FEFF"/>
<g clip-path="url(#clip0_39_24104)">
<path d="M158.068 103.85L165.466 116.114C165.466 116.114 179.774 120.202 194.57 116.698C209.365 113.194 201.772 103.559 201.772 103.559L187.853 97.4278L169.749 97.5248L158.068 103.85Z" fill="#1E406A"/>
<g style="mix-blend-mode:multiply" opacity="0.38">
<path d="M158.068 103.85L165.466 116.114C165.466 116.114 179.774 120.202 194.57 116.698C209.365 113.194 201.772 103.559 201.772 103.559L187.853 97.4278L169.749 97.5248L158.068 103.85Z" fill="#1E406A"/>
</g>
<path d="M232.804 269.462L223.285 216.945C223.285 216.945 232.804 141.057 230.84 137.456C229.323 134.675 207.231 126.482 197.257 122.897C194.368 121.859 192.455 119.106 192.488 116.038L192.682 97.6196L180.747 99.4474L168.812 97.6196L169.007 116.163C169.039 119.153 167.157 121.828 164.333 122.813C154.406 126.273 132.176 134.276 130.653 137.067C128.689 140.668 138.536 217.075 138.536 217.075L128.689 269.462L180.738 271.425L180.747 269.905L180.756 271.425L232.804 269.462Z" fill="#F9DAC8"/>
<g style="mix-blend-mode:multiply">
<path d="M193.318 117.518C192.775 116.484 192.475 115.314 192.488 114.091L192.683 95.6725L180.748 97.5003L168.813 95.6725L169.008 114.216C169.02 115.416 168.722 116.562 168.181 117.572C171.713 121.374 176.045 123.716 180.724 123.716C185.404 123.716 189.777 121.351 193.319 117.517L193.318 117.518Z" fill="#F9DAC8"/>
</g>
<path d="M198.549 147.449L197.435 122.962C197.435 122.962 196.588 137.421 181.106 137.396C166.254 137.373 164.365 122.803 164.365 122.803L164.331 145.71C164.331 145.71 160.137 189.759 172.249 206.721C171.49 237.47 168.598 273.016 168.598 273.016L195.335 272.321C195.335 272.321 190.19 237.107 188.577 208.731C201.588 194.421 198.551 147.45 198.551 147.45L198.549 147.449Z" fill="#94BCC1"/>
<path d="M202.261 88.9268C202.261 104.701 192.618 119.824 180.725 119.824C168.831 119.824 159.188 104.701 159.188 88.9268C159.188 73.1525 168.831 61.9226 180.725 61.9226C192.618 61.9226 202.261 73.1525 202.261 88.9268Z" fill="#F9DAC8"/>
<path d="M188.575 208.73C189.995 233.721 194.155 264.011 195.126 270.883L232.804 269.462L223.285 216.945C223.285 216.945 232.804 141.057 230.84 137.456C229.332 134.691 207.489 126.578 197.435 122.962L198.549 147.449C198.549 147.449 201.587 194.421 188.575 208.73Z" fill="#D7F7FF"/>
<path d="M197.434 122.962L196.437 123.355C196.437 123.355 196.399 124.933 196.292 127.679C197.307 125.073 197.434 122.962 197.434 122.962Z" fill="#D7F7FF"/>
<path d="M168.756 270.974C169.374 263.004 171.596 233.098 172.247 206.721C160.136 189.761 164.329 145.71 164.329 145.71L164.363 122.803C154.454 126.256 132.177 134.273 130.653 137.067C128.688 140.668 139.574 218.502 139.574 218.502L128.688 269.462L168.756 270.974Z" fill="#D7F7FF"/>
<g style="mix-blend-mode:multiply">
<path d="M217.962 167.675L226.366 206.61L190.231 244.214L219.861 206.097L217.962 167.675Z" fill="#D7F7FF"/>
</g>
<g style="mix-blend-mode:multiply">
<path d="M144.849 173.449L134.205 204.787C134.205 204.787 157.176 239.272 170.902 249.076L143.169 206.221L144.849 173.449Z" fill="#D7F7FF"/>
</g>
<path d="M150.395 147.372L130.098 137.456C130.098 137.456 114.801 160.649 111.036 211.73C110.84 214.386 111.454 217.036 112.77 219.352C117.223 227.194 129.948 245.531 158.576 261.959L169.734 249.852C169.734 249.852 167.82 246.833 159.697 237.03C153.76 229.866 138.125 205.898 138.125 205.898L150.396 147.37L150.395 147.372Z" fill="#D7F7FF"/>
<path d="M189.925 255.221L190.338 249.946C190.338 249.946 182.5 251.376 180.909 254.16C179.317 256.944 181.693 255.888 183.958 255.752C186.696 255.585 189.925 255.221 189.925 255.221Z" fill="#F1C7C1"/>
<g style="mix-blend-mode:multiply">
<path d="M194.152 262.521L194.991 269.523L201.244 266.755C201.244 266.755 211.518 263.92 230.334 257.313L227.205 237.592L207.036 248.796L194.152 262.521Z" fill="#D7F7FF"/>
</g>
<path d="M162.995 223.218L120.449 249.345C119.134 250.153 118.723 251.873 119.53 253.188L158.52 316.668C159.328 317.982 161.048 318.393 162.363 317.586L204.909 291.459C206.224 290.652 206.635 288.931 205.828 287.617L166.838 224.137C166.031 222.822 164.31 222.411 162.995 223.218Z" fill="#AA8B72"/>
<path d="M161.775 226.857L123.557 250.326L160.006 309.67L198.224 286.2L161.775 226.857Z" fill="white"/>
<path d="M154.08 227.219L127.979 243.247L132.327 250.325L158.427 234.297L154.08 227.219Z" fill="#3D968B"/>
<g style="mix-blend-mode:multiply">
<path d="M205.83 287.617L166.84 224.136C166.167 223.041 164.861 222.576 163.684 222.917C163.846 223.076 163.994 223.254 164.118 223.456L203.109 286.937C203.917 288.251 203.505 289.971 202.191 290.778L159.644 316.906C159.424 317.041 159.193 317.138 158.958 317.207C159.852 318.078 161.253 318.27 162.365 317.586L204.913 291.459C206.227 290.651 206.638 288.932 205.83 287.617Z" fill="#AA8B72"/>
</g>
<path d="M161.775 226.857L123.557 250.326L160.006 309.67L198.224 286.2L161.775 226.857Z" fill="white"/>
<path d="M154.08 227.219L127.979 243.247L132.327 250.325L158.427 234.297L154.08 227.219Z" fill="#F89E49"/>
<path d="M198.067 246.454L191.44 249.236C189.939 249.866 188.718 251.013 187.986 252.467C186.579 255.26 183.399 260.012 177.33 262.185C168.447 265.367 174.91 271.233 180.66 272.218C186.583 273.234 192.566 273.387 197.485 265.96C207.415 250.964 211.08 249.682 211.08 249.682L198.069 246.455L198.067 246.454Z" fill="#F1C7C1"/>
<path d="M213.719 151.577L230.84 137.455C230.84 137.455 246.307 154.898 249.964 206.357C250.111 208.421 249.805 210.493 249.075 212.429C245.868 220.938 234.646 244.744 204.263 263.772L188.285 246.548C188.285 246.548 193.196 241.638 200.397 235.746C207.599 229.855 223.983 205.898 223.983 205.898L213.719 151.577Z" fill="#D7F7FF"/>
<g style="mix-blend-mode:multiply">
<path d="M195.066 124.559C195.066 124.559 199.551 131.481 196.565 153.804C194.907 166.207 192.646 178.533 190.965 187.037C189.457 194.667 187.934 202.479 188.755 210.214L190.403 225.749C190.403 225.749 209.267 187.554 209.462 170.423L202.608 158.367L210.661 155.236C210.661 155.236 206.034 129.31 195.066 124.559Z" fill="#D7F7FF"/>
</g>
<g style="mix-blend-mode:multiply">
<path d="M166.219 120.277C166.219 120.277 161.735 127.199 164.72 149.521C166.379 161.924 168.639 174.251 170.32 182.755C171.828 190.385 173.351 198.197 172.531 205.932L170.882 221.466C170.882 221.466 152.018 183.271 151.823 166.141L158.678 154.085L150.624 150.953C150.624 150.953 155.251 125.027 166.219 120.277Z" fill="#D7F7FF"/>
</g>
<path d="M165.437 122.369C163.627 121.907 161.359 124.225 160.481 125.267C159.604 126.31 158.802 127.417 158.088 128.582C157.694 129.143 157.416 129.766 157.079 130.36L156.594 131.262C156.44 131.567 156.316 131.885 156.175 132.195C155.907 132.82 155.621 133.443 155.368 134.075L154.709 136.01C154.604 136.334 154.478 136.653 154.391 136.982L154.141 137.971L153.644 139.954C153.38 141.261 153.111 142.562 152.87 143.871C151.9 149.102 151.213 154.375 150.649 159.655C150.365 162.296 150.135 164.941 149.93 167.59L153.386 167.803C153.514 165.183 153.667 162.563 153.872 159.948C154.258 154.715 154.857 149.502 155.569 144.311C155.747 143.014 155.956 141.72 156.155 140.428L156.539 138.55L156.73 137.61C156.798 137.298 156.902 136.997 156.986 136.689L157.52 134.849C157.73 134.248 157.972 133.658 158.195 133.06C158.312 132.764 158.415 132.459 158.545 132.169L158.96 131.308C159.249 130.742 159.482 130.139 159.827 129.604C162.189 124.802 167.494 120.586 165.437 122.37V122.369Z" fill="url(#paint0_linear_39_24104)"/>
<path d="M156.937 178.441C160.353 175.025 160.353 169.487 156.937 166.072C153.521 162.656 147.982 162.656 144.566 166.072C141.15 169.487 141.15 175.025 144.566 178.441C147.982 181.856 153.521 181.856 156.937 178.441Z" fill="#0EA3B2"/>
<path style="mix-blend-mode:screen" opacity="0.47" d="M156.441 172.366C156.381 175.509 153.784 178.007 150.642 177.946C147.499 177.886 145 175.289 145.061 172.147C145.121 169.005 147.717 166.507 150.86 166.567C154.003 166.627 156.501 169.224 156.441 172.366Z" fill="#F89E49"/>
<path d="M193.51 119.498C193.51 119.498 197.994 126.42 195.009 148.743C193.35 161.146 191.09 173.472 189.409 181.977C187.901 189.607 187.545 197.419 188.366 205.153L190.014 220.688C190.014 220.688 209.374 179.946 206.999 163.567L201.051 153.306L209.105 150.175C209.105 150.175 204.478 124.249 193.51 119.498Z" fill="white"/>
<path d="M168.404 118.717C168.404 118.717 164.022 125.679 167.209 147.972C169.136 161.454 170.717 174.826 171.667 183.29C172.317 189.095 172.544 194.937 172.344 200.774L171.684 219.901C171.684 219.901 153.126 179.303 155.352 162.905L161.207 152.59L153.126 149.533C153.126 149.533 157.48 123.568 168.404 118.717Z" fill="white"/>
<path d="M177.145 62.9329C177.145 62.9329 181.636 66.3978 169.006 74.3535C160.6 79.6484 163.066 91.9757 163.066 91.9757C163.066 91.9757 164.234 113.778 173.579 123.121C173.579 123.121 162.302 123.442 157.507 117.733C152.711 112.024 147.459 91.2464 151.797 76.8605C156.136 62.4757 168.467 50.831 178.743 53.3424C189.019 55.8538 177.145 62.9329 177.145 62.9329Z" fill="#3F3F4C"/>
<path d="M164.33 85.2846C164.33 85.2846 160.004 80.8506 157.733 85.1764C155.463 89.5022 157.798 98.1304 164.339 96.7085" fill="#F9DAC8"/>
<g style="mix-blend-mode:multiply" opacity="0.21">
<path d="M162.51 120.462C157.318 114.629 151.196 93.0339 155.306 77.844C158.475 66.1379 166.66 56.002 175.206 53.0256C165.79 53.4973 155.646 64.096 151.796 76.8615C147.458 91.2463 152.71 112.026 157.506 117.734C159.097 119.629 161.404 120.857 163.775 121.655C163.323 121.29 162.897 120.896 162.51 120.462Z" fill="#0EA3B2"/>
</g>
<path d="M206.535 70.9244C200.566 57.8254 190.958 54.3605 186.355 53.4438C185.552 53.2532 184.719 53.1439 183.857 53.1216C183.651 53.1126 183.539 53.1138 183.539 53.1138C171.208 53.1138 173.035 57.6804 173.035 57.6804C173.035 57.6804 167.428 68.9248 185.292 76.7211C189.849 78.7106 193.088 81.4863 195.755 85.6035C197.346 88.0603 198.312 91.2397 198.381 94.1659V94.2139C198.611 104.489 189.543 123.379 189.543 123.379C189.543 123.379 194.699 120.56 196.556 120.472C196.604 120.47 196.652 120.468 196.698 120.465C201.158 120.234 204.988 117.227 206.33 112.967C209.426 103.132 212.907 84.9021 206.536 70.9244H206.535Z" fill="#3F3F4C"/>
<path d="M197.061 121.865C198.307 121.537 199.883 123.123 200.493 123.838C201.103 124.552 201.662 125.312 202.161 126.11C202.435 126.495 202.63 126.924 202.865 127.331L203.204 127.951C203.312 128.161 203.399 128.379 203.498 128.593C203.686 129.023 203.886 129.45 204.064 129.885L204.529 131.216C204.603 131.439 204.691 131.658 204.754 131.885L204.931 132.565L205.285 133.929C205.473 134.829 205.666 135.724 205.839 136.625C206.534 140.227 207.034 143.86 207.45 147.498C207.66 149.318 207.832 151.141 207.987 152.966L205.605 153.131C205.503 151.326 205.384 149.52 205.229 147.718C204.935 144.112 204.496 140.521 203.979 136.944C203.849 136.051 203.699 135.159 203.555 134.27L203.28 132.978L203.144 132.33C203.096 132.114 203.023 131.907 202.962 131.696L202.586 130.431C202.437 130.017 202.268 129.612 202.11 129.201C202.028 128.996 201.956 128.788 201.864 128.588L201.574 127.997C201.372 127.608 201.208 127.194 200.968 126.826C199.314 123.526 195.635 120.646 197.063 121.866L197.061 121.865Z" fill="url(#paint1_linear_39_24104)"/>
<path d="M219.337 168.083C218.969 166.268 218.534 164.469 218.045 162.687C217.801 161.795 217.538 160.909 217.266 160.024C217.119 159.579 217.012 159.152 216.805 158.682L216.522 157.99L216.15 157.346C215.136 155.618 213.538 154.38 211.878 153.441C211.033 152.99 210.16 152.598 209.264 152.278C208.352 151.967 207.48 151.722 206.522 151.319L206.474 151.621L206.41 151.322C205.474 151.776 204.617 152.066 203.722 152.426C202.845 152.793 201.994 153.232 201.174 153.727C199.567 154.753 198.036 156.074 197.116 157.853L196.778 158.516L196.533 159.221C196.351 159.702 196.268 160.135 196.144 160.586C195.92 161.484 195.706 162.383 195.509 163.286C195.116 165.093 194.776 166.912 194.507 168.743C193.976 172.403 193.669 176.122 193.96 179.853C194.01 180.322 194.036 180.779 194.102 181.257C194.162 181.739 194.27 182.214 194.397 182.682C194.663 183.617 195.055 184.517 195.576 185.342C196.12 186.194 197.465 187.677 197.465 187.677L199.505 189.871C200.201 190.499 201.31 190.236 201.648 189.361L202.064 188.289C202.408 187.399 201.736 186.443 200.781 186.469L198.62 186.527C198.282 186.535 197.958 186.398 197.721 186.157C197.286 185.719 196.896 185.233 196.568 184.717C196.105 183.991 195.752 183.194 195.513 182.365C195.399 181.949 195.298 181.527 195.244 181.098C195.184 180.667 195.151 180.208 195.107 179.763C194.852 176.164 195.177 172.519 195.727 168.926C196.007 167.128 196.354 165.338 196.755 163.56C196.955 162.672 197.173 161.787 197.401 160.905C197.522 160.472 197.623 160.003 197.775 159.627L197.984 159.033L198.277 158.473C199.06 156.971 200.414 155.804 201.888 154.879C202.642 154.432 203.429 154.032 204.249 153.698C204.969 153.404 205.751 153.144 206.516 153.112C207.282 153.103 208.076 153.322 208.811 153.576C209.647 153.867 210.455 154.224 211.232 154.63C212.752 155.476 214.167 156.569 215.029 158.027L215.351 158.57L215.591 159.152C215.764 159.519 215.89 159.983 216.034 160.409C216.308 161.278 216.574 162.149 216.82 163.025C217.317 164.778 217.758 166.547 218.134 168.328C218.876 171.886 219.393 175.51 219.332 179.117C219.311 179.563 219.303 180.024 219.266 180.458C219.234 180.889 219.157 181.315 219.065 181.737C218.87 182.579 218.561 183.393 218.137 184.142C217.836 184.675 217.474 185.182 217.062 185.642C216.837 185.894 216.522 186.049 216.183 186.058L214.022 186.116C213.067 186.142 212.446 187.131 212.839 188.002L213.31 189.05C213.695 189.904 214.816 190.108 215.477 189.445L217.397 187.147C217.397 187.147 218.662 185.594 219.159 184.714C219.635 183.862 219.979 182.942 220.194 181.996C220.295 181.52 220.379 181.041 220.414 180.557C220.454 180.075 220.455 179.618 220.48 179.147C220.571 175.406 220.067 171.708 219.341 168.081L219.337 168.083Z" fill="#0EA3B2"/>
<g style="mix-blend-mode:multiply" opacity="0.21">
<path d="M189.94 122.76C192.367 117.521 196.109 111.724 197.773 106.193C199.72 99.7228 201.421 93.3395 198.91 86.7008C197.117 81.958 193.578 77.9032 189.149 75.4397C184.783 73.0108 180.166 71.5265 176.531 67.8832C174.021 65.3674 171.724 61.4252 173.099 57.7741C173.102 57.7641 173.108 57.7529 173.113 57.7429L173.033 57.6804C173.033 57.6804 167.426 68.9248 185.29 76.7211C189.847 78.7094 193.086 81.4862 195.753 85.6035C197.344 88.0603 198.31 91.2396 198.379 94.1659V94.2138C198.609 104.489 189.541 123.379 189.541 123.379C189.541 123.379 188.82 123.312 189.94 122.76Z" fill="#1E406A"/>
<path d="M196.835 120.453C197.593 120.404 198.334 120.276 199.045 120.074C198.81 120.102 198.574 120.126 198.335 120.139C198.288 120.141 198.24 120.143 198.192 120.145C197.84 120.162 197.367 120.278 196.835 120.453Z" fill="#1E406A"/>
</g>
</g>
<g clip-path="url(#clip1_39_24104)">
<path style="mix-blend-mode:multiply" opacity="0.6" d="M83.2907 59.6986C83.0407 59.4591 82.7751 59.2451 82.498 59.0521C82.3895 58.976 82.2781 58.9056 82.1652 58.838C81.3283 58.331 80.3957 58.0183 79.4374 57.9211C79.4188 57.9197 79.4003 57.9197 79.3803 57.9183C78.1591 57.8042 76.9038 58.0282 75.7741 58.6084C75.5827 58.707 75.3956 58.8155 75.2113 58.9338C75.0285 59.0521 74.8486 59.1817 74.6743 59.3211C73.299 60.4239 72.5035 61.9662 72.3192 63.576C72.3178 63.5944 72.3121 63.6127 72.3107 63.631C72.1407 65.2606 72.6006 66.9549 73.7303 68.3268L90.4674 88.6324C92.7282 91.376 96.8186 91.7929 99.6007 89.562C102.383 87.331 102.806 83.2986 100.543 80.5549L92.1755 70.4014L83.8077 60.2479C83.6449 60.0507 83.4706 59.869 83.2892 59.6944L83.2907 59.6986Z" fill="url(#paint2_linear_39_24104)"/>
<path d="M96.3239 88.6773C93.5418 90.9083 89.4528 90.4914 87.1905 87.7478L70.4549 67.4407C68.1926 64.6971 68.6154 60.6647 71.3975 58.4351C74.1796 56.2041 78.2686 56.621 80.5308 59.3647L97.2679 79.6703C99.5288 82.414 99.106 86.4463 96.3239 88.6773Z" fill="url(#paint3_linear_39_24104)"/>
<path d="M71.3975 58.4351C68.6154 60.6647 68.1926 64.6971 70.4549 67.4407L78.8227 77.5942L88.8987 69.5168L80.5308 59.3647C78.2686 56.621 74.1796 56.2041 71.3975 58.4351Z" fill="url(#paint4_linear_39_24104)"/>
<path opacity="0.43" d="M73.9199 57.1972C74.3184 57.4986 74.6926 57.8437 75.0239 58.2451L91.761 78.5507C94.0233 81.2944 93.6005 85.3268 90.8184 87.5577C90.0543 88.1704 89.1917 88.5761 88.2962 88.7958C90.6256 90.5507 93.9504 90.5817 96.3255 88.6775C99.1077 86.4465 99.5304 82.4141 97.2681 79.6704L80.5311 59.3648C78.8901 57.3732 76.2879 56.6155 73.9199 57.1972Z" fill="url(#paint5_linear_39_24104)"/>
<path style="mix-blend-mode:screen" d="M70.9677 62.4479C70.9677 62.4479 69.9237 64.2113 72.8972 68.1634C75.8707 72.1155 76.4734 72.876 76.4734 72.876C76.4734 72.876 70.6221 64.0169 70.9677 62.4479Z" fill="url(#paint6_linear_39_24104)"/>
</g>
<g clip-path="url(#clip2_39_24104)">
<path style="mix-blend-mode:multiply" opacity="0.6" d="M292.704 243.693C292.403 243.863 292.122 244.056 291.857 244.265C291.753 244.347 291.653 244.434 291.556 244.522C290.829 245.177 290.261 245.98 289.891 246.87C289.885 246.887 289.879 246.905 289.872 246.924C289.411 248.06 289.263 249.327 289.493 250.576C289.532 250.787 289.582 250.998 289.642 251.208C289.703 251.418 289.775 251.627 289.858 251.834C290.518 253.469 291.765 254.676 293.253 255.316C293.27 255.323 293.286 255.334 293.303 255.34C294.815 255.973 296.57 256.021 298.209 255.335L322.479 245.165C325.758 243.792 327.337 239.995 326.003 236.688C324.669 233.381 320.93 231.813 317.65 233.188L305.515 238.272L293.38 243.356C293.144 243.455 292.92 243.57 292.7 243.693L292.704 243.693Z" fill="url(#paint7_linear_39_24104)"/>
<path d="M324.211 239.57C325.545 242.877 323.967 246.672 320.687 248.047L296.416 258.216C293.137 259.591 289.398 258.023 288.065 254.716C286.731 251.409 288.31 247.614 291.589 246.239L315.859 236.069C319.138 234.695 322.877 236.263 324.211 239.57Z" fill="url(#paint8_linear_39_24104)"/>
<path d="M288.065 254.716C289.398 258.023 293.137 259.591 296.416 258.216L308.552 253.131L303.723 241.154L291.589 246.239C288.31 247.614 286.731 251.409 288.065 254.716Z" fill="url(#paint9_linear_39_24104)"/>
<path opacity="0.43" d="M287.607 251.944C288.011 251.649 288.449 251.39 288.929 251.189L313.199 241.019C316.478 239.644 320.217 241.211 321.551 244.519C321.918 245.427 322.057 246.37 322.009 247.291C324.361 245.567 325.35 242.392 324.212 239.569C322.878 236.261 319.139 234.694 315.859 236.068L291.589 246.239C289.209 247.236 287.733 249.509 287.607 251.944Z" fill="url(#paint10_linear_39_24104)"/>
<path style="mix-blend-mode:screen" d="M291.784 256.285C291.784 256.285 293.171 257.793 297.813 256.085C302.455 254.378 303.357 254.02 303.357 254.02C303.357 254.02 293.187 257.068 291.784 256.285Z" fill="url(#paint11_linear_39_24104)"/>
</g>
<defs>
<linearGradient id="paint0_linear_39_24104" x1="165.808" y1="144.997" x2="150.344" y2="144.699" gradientUnits="userSpaceOnUse">
<stop offset="0.206" stop-color="#1E406A"/>
<stop offset="0.427" stop-color="#1A3D64"/>
<stop offset="0.715" stop-color="#0F3654"/>
<stop offset="0.999" stop-color="#012C3D"/>
</linearGradient>
<linearGradient id="paint1_linear_39_24104" x1="196.924" y1="137.475" x2="207.588" y2="137.19" gradientUnits="userSpaceOnUse">
<stop offset="0.206" stop-color="#1E406A"/>
<stop offset="0.427" stop-color="#1A3D64"/>
<stop offset="0.715" stop-color="#0F3654"/>
<stop offset="0.999" stop-color="#012C3D"/>
</linearGradient>
<linearGradient id="paint2_linear_39_24104" x1="70.3109" y1="66.8151" x2="103.596" y2="82.1899" gradientUnits="userSpaceOnUse">
<stop stop-color="#1191CE" stop-opacity="0.8"/>
<stop offset="1" stop-color="#119FCE" stop-opacity="0.4"/>
</linearGradient>
<linearGradient id="paint3_linear_39_24104" x1="67.032" y1="65.9234" x2="100.319" y2="81.3004" gradientUnits="userSpaceOnUse">
<stop stop-color="#F26B63"/>
<stop offset="0.216" stop-color="#F5816B"/>
<stop offset="0.711" stop-color="#FCAF7C"/>
<stop offset="0.96" stop-color="#FFC183"/>
</linearGradient>
<linearGradient id="paint4_linear_39_24104" x1="68.396" y1="62.9716" x2="87.6535" y2="71.8682" gradientUnits="userSpaceOnUse">
<stop offset="0.17" stop-color="#8BEACE"/>
<stop offset="0.979" stop-color="#B1EACE"/>
</linearGradient>
<linearGradient id="paint5_linear_39_24104" x1="69.2666" y1="66.9241" x2="100.33" y2="81.2752" gradientUnits="userSpaceOnUse">
<stop stop-color="#1191CE" stop-opacity="0.8"/>
<stop offset="1" stop-color="#119FCE" stop-opacity="0.4"/>
</linearGradient>
<linearGradient id="paint6_linear_39_24104" x1="69.3521" y1="65.6244" x2="77.8613" y2="69.5559" gradientUnits="userSpaceOnUse">
<stop offset="0.021" stop-color="#B1EACE"/>
<stop offset="0.999" stop-color="#8BEACE"/>
</linearGradient>
<linearGradient id="paint7_linear_39_24104" x1="295.775" y1="258.173" x2="320.096" y2="230.736" gradientUnits="userSpaceOnUse">
<stop stop-color="#1191CE" stop-opacity="0.8"/>
<stop offset="1" stop-color="#119FCE" stop-opacity="0.4"/>
</linearGradient>
<linearGradient id="paint8_linear_39_24104" x1="293.976" y1="261.055" x2="318.3" y2="233.617" gradientUnits="userSpaceOnUse">
<stop stop-color="#F26B63"/>
<stop offset="0.216" stop-color="#F5816B"/>
<stop offset="0.711" stop-color="#FCAF7C"/>
<stop offset="0.96" stop-color="#FFC183"/>
</linearGradient>
<linearGradient id="paint9_linear_39_24104" x1="291.543" y1="258.898" x2="305.616" y2="243.024" gradientUnits="userSpaceOnUse">
<stop offset="0.17" stop-color="#8BEACE"/>
<stop offset="0.979" stop-color="#B1EACE"/>
</linearGradient>
<linearGradient id="paint10_linear_39_24104" x1="295.579" y1="259.204" x2="318.279" y2="233.599" gradientUnits="userSpaceOnUse">
<stop stop-color="#1191CE" stop-opacity="0.8"/>
<stop offset="1" stop-color="#119FCE" stop-opacity="0.4"/>
</linearGradient>
<linearGradient id="paint11_linear_39_24104" x1="294.36" y1="258.748" x2="300.578" y2="251.734" gradientUnits="userSpaceOnUse">
<stop offset="0.021" stop-color="#B1EACE"/>
<stop offset="0.999" stop-color="#8BEACE"/>
</linearGradient>
<clipPath id="clip0_39_24104">
<rect width="139" height="265" fill="white" transform="translate(111 53)"/>
</clipPath>
<clipPath id="clip1_39_24104">
<rect width="33" height="34" fill="white" transform="translate(69 57)"/>
</clipPath>
<clipPath id="clip2_39_24104">
<rect width="33" height="34" fill="white" transform="translate(286 256.598) rotate(-73.2387)"/>
</clipPath>
</defs>
</svg>
